<mxfile host="app.diagrams.net" modified="2022-08-21T01:12:23.501Z" agent="5.0 (Macintosh; Intel Mac OS X 10_15_7) AppleWebKit/537.36 (KHTML, like Gecko) Chrome/104.0.0.0 Safari/537.36" etag="lL0wvRw9qt35_B9VKWPI" version="20.2.4" type="github">
  <diagram id="3228e29e-7158-1315-38df-8450db1d8a1d" name="Page-1">
    <mxGraphModel dx="1298" dy="755" grid="0" gridSize="10" guides="1" tooltips="1" connect="1" arrows="1" fold="1" page="1" pageScale="1" pageWidth="600" pageHeight="350" background="#EFF1F3" math="0" shadow="0">
      <root>
        <mxCell id="0" />
        <mxCell id="1" parent="0" />
        <mxCell id="UU9xKcYvhKtoYnd8AA-M-1" value="&lt;h1&gt;&lt;span style=&quot;font-size: 52px;&quot;&gt;&lt;font color=&quot;#4a919b&quot;&gt;Instagram &lt;/font&gt;&lt;font color=&quot;#ffffff&quot;&gt;&amp;nbsp;&lt;/font&gt;&lt;font color=&quot;#595959&quot;&gt;上线首周就获得 &lt;/font&gt;&lt;font color=&quot;#535e80&quot;&gt;10 万&lt;/font&gt;&lt;font color=&quot;#595959&quot;&gt;用户的&lt;/font&gt;&lt;font color=&quot;#f19c99&quot;&gt;原因&lt;/font&gt;&lt;/span&gt;&lt;br&gt;&lt;/h1&gt;" style="text;html=1;strokeColor=none;fillColor=none;align=center;verticalAlign=middle;whiteSpace=wrap;rounded=0;" parent="1" vertex="1">
          <mxGeometry x="20" y="47" width="554" height="261" as="geometry" />
        </mxCell>
      </root>
    </mxGraphModel>
  </diagram>
</mxfile>
